<mxfile host="app.diagrams.net" agent="Mozilla/5.0 (Macintosh; Intel Mac OS X 10_15_7) AppleWebKit/605.1.15 (KHTML, like Gecko) Version/17.6 Safari/605.1.15" version="24.7.10">
  <diagram name="Page-1" id="-2vu8Jl3uebH3-_PSLG7">
    <mxGraphModel dx="1026" dy="650" grid="1" gridSize="10" guides="1" tooltips="1" connect="1" arrows="1" fold="1" page="1" pageScale="1" pageWidth="850" pageHeight="1100" math="0" shadow="0">
      <root>
        <mxCell id="0" />
        <mxCell id="1" parent="0" />
        <mxCell id="rD1GTLntBQ4M41EryCwE-1" value="" style="whiteSpace=wrap;html=1;" parent="1" vertex="1">
          <mxGeometry x="10" y="190" width="270" height="180" as="geometry" />
        </mxCell>
        <mxCell id="rD1GTLntBQ4M41EryCwE-2" value="Card" style="text;html=1;align=center;verticalAlign=middle;resizable=0;points=[];autosize=1;strokeColor=none;fillColor=none;" parent="1" vertex="1">
          <mxGeometry x="60" y="190" width="50" height="30" as="geometry" />
        </mxCell>
        <mxCell id="rD1GTLntBQ4M41EryCwE-3" value="Value() -&amp;gt; int" style="text;html=1;align=center;verticalAlign=middle;resizable=0;points=[];autosize=1;strokeColor=none;fillColor=none;" parent="1" vertex="1">
          <mxGeometry x="10" y="610" width="90" height="30" as="geometry" />
        </mxCell>
        <mxCell id="rD1GTLntBQ4M41EryCwE-4" value="Suit - int" style="text;html=1;align=center;verticalAlign=middle;resizable=0;points=[];autosize=1;strokeColor=none;fillColor=none;" parent="1" vertex="1">
          <mxGeometry x="15" y="488" width="70" height="30" as="geometry" />
        </mxCell>
        <mxCell id="rD1GTLntBQ4M41EryCwE-5" value="Suit - Enum&lt;div&gt;Hearts&lt;/div&gt;&lt;div&gt;Spades&lt;/div&gt;&lt;div&gt;Diamonds&lt;/div&gt;&lt;div&gt;Clubs&lt;/div&gt;" style="text;html=1;align=center;verticalAlign=middle;resizable=0;points=[];autosize=1;strokeColor=none;fillColor=none;" parent="1" vertex="1">
          <mxGeometry x="640" y="120" width="90" height="80" as="geometry" />
        </mxCell>
        <mxCell id="rD1GTLntBQ4M41EryCwE-6" value="getDeck () -&amp;gt; list card" style="text;html=1;align=center;verticalAlign=middle;resizable=0;points=[];autosize=1;strokeColor=none;fillColor=none;" parent="1" vertex="1">
          <mxGeometry x="1170" y="20" width="140" height="30" as="geometry" />
        </mxCell>
        <mxCell id="rD1GTLntBQ4M41EryCwE-7" value="shuffleDeck(list card) -&amp;gt; list card" style="text;html=1;align=center;verticalAlign=middle;resizable=0;points=[];autosize=1;strokeColor=none;fillColor=none;" parent="1" vertex="1">
          <mxGeometry x="1170" y="60" width="190" height="30" as="geometry" />
        </mxCell>
        <mxCell id="rD1GTLntBQ4M41EryCwE-8" value="Rank" style="text;html=1;align=center;verticalAlign=middle;resizable=0;points=[];autosize=1;strokeColor=none;fillColor=none;" parent="1" vertex="1">
          <mxGeometry x="15" y="518" width="50" height="30" as="geometry" />
        </mxCell>
        <mxCell id="rD1GTLntBQ4M41EryCwE-9" value="DeckNum" style="text;html=1;align=center;verticalAlign=middle;resizable=0;points=[];autosize=1;strokeColor=none;fillColor=none;" parent="1" vertex="1">
          <mxGeometry x="10" y="570" width="80" height="30" as="geometry" />
        </mxCell>
        <mxCell id="rD1GTLntBQ4M41EryCwE-10" value="Id" style="text;html=1;align=center;verticalAlign=middle;resizable=0;points=[];autosize=1;strokeColor=none;fillColor=none;" parent="1" vertex="1">
          <mxGeometry x="15" y="548" width="30" height="30" as="geometry" />
        </mxCell>
        <mxCell id="rD1GTLntBQ4M41EryCwE-11" value="Database" style="text;html=1;align=center;verticalAlign=middle;resizable=0;points=[];autosize=1;strokeColor=none;fillColor=none;" parent="1" vertex="1">
          <mxGeometry x="1020" y="612" width="70" height="30" as="geometry" />
        </mxCell>
        <mxCell id="rD1GTLntBQ4M41EryCwE-12" value="Player" style="text;html=1;align=center;verticalAlign=middle;resizable=0;points=[];autosize=1;strokeColor=none;fillColor=none;" parent="1" vertex="1">
          <mxGeometry x="1020" y="684" width="60" height="30" as="geometry" />
        </mxCell>
        <mxCell id="rD1GTLntBQ4M41EryCwE-13" value="PlayerId" style="text;html=1;align=center;verticalAlign=middle;resizable=0;points=[];autosize=1;strokeColor=none;fillColor=none;" parent="1" vertex="1">
          <mxGeometry x="1020" y="724" width="70" height="30" as="geometry" />
        </mxCell>
        <mxCell id="rD1GTLntBQ4M41EryCwE-14" value="Moneys" style="text;html=1;align=center;verticalAlign=middle;resizable=0;points=[];autosize=1;strokeColor=none;fillColor=none;" parent="1" vertex="1">
          <mxGeometry x="1020" y="754" width="70" height="30" as="geometry" />
        </mxCell>
        <mxCell id="rD1GTLntBQ4M41EryCwE-15" value="Dealer" style="text;html=1;align=center;verticalAlign=middle;resizable=0;points=[];autosize=1;strokeColor=none;fillColor=none;" parent="1" vertex="1">
          <mxGeometry x="1170" y="292" width="60" height="30" as="geometry" />
        </mxCell>
        <mxCell id="rD1GTLntBQ4M41EryCwE-16" value="GamePlayer" style="text;html=1;align=center;verticalAlign=middle;resizable=0;points=[];autosize=1;strokeColor=none;fillColor=none;" parent="1" vertex="1">
          <mxGeometry x="1000" y="292" width="90" height="30" as="geometry" />
        </mxCell>
        <mxCell id="rD1GTLntBQ4M41EryCwE-17" value="Server" style="text;html=1;align=center;verticalAlign=middle;resizable=0;points=[];autosize=1;strokeColor=none;fillColor=none;" parent="1" vertex="1">
          <mxGeometry x="1230" y="212" width="60" height="30" as="geometry" />
        </mxCell>
        <mxCell id="rD1GTLntBQ4M41EryCwE-18" value="Client" style="text;html=1;align=center;verticalAlign=middle;resizable=0;points=[];autosize=1;strokeColor=none;fillColor=none;" parent="1" vertex="1">
          <mxGeometry x="410" y="590" width="50" height="30" as="geometry" />
        </mxCell>
        <mxCell id="rD1GTLntBQ4M41EryCwE-19" value="PlayerId" style="text;html=1;align=center;verticalAlign=middle;resizable=0;points=[];autosize=1;strokeColor=none;fillColor=none;" parent="1" vertex="1">
          <mxGeometry x="1010" y="330" width="70" height="30" as="geometry" />
        </mxCell>
        <mxCell id="rD1GTLntBQ4M41EryCwE-20" value="Hand - List Card" style="text;html=1;align=center;verticalAlign=middle;resizable=0;points=[];autosize=1;strokeColor=none;fillColor=none;" parent="1" vertex="1">
          <mxGeometry x="1000" y="372" width="110" height="30" as="geometry" />
        </mxCell>
        <mxCell id="rD1GTLntBQ4M41EryCwE-21" value="Table" style="text;html=1;align=center;verticalAlign=middle;resizable=0;points=[];autosize=1;strokeColor=none;fillColor=none;" parent="1" vertex="1">
          <mxGeometry x="1360" y="292" width="50" height="30" as="geometry" />
        </mxCell>
        <mxCell id="rD1GTLntBQ4M41EryCwE-22" value="Table Id" style="text;html=1;align=center;verticalAlign=middle;resizable=0;points=[];autosize=1;strokeColor=none;fillColor=none;" parent="1" vertex="1">
          <mxGeometry x="1350" y="342" width="70" height="30" as="geometry" />
        </mxCell>
        <mxCell id="rD1GTLntBQ4M41EryCwE-23" value="Tableid" style="text;html=1;align=center;verticalAlign=middle;resizable=0;points=[];autosize=1;strokeColor=none;fillColor=none;" parent="1" vertex="1">
          <mxGeometry x="1015" y="412" width="60" height="30" as="geometry" />
        </mxCell>
        <mxCell id="rD1GTLntBQ4M41EryCwE-24" value="Tableid" style="text;html=1;align=center;verticalAlign=middle;resizable=0;points=[];autosize=1;strokeColor=none;fillColor=none;" parent="1" vertex="1">
          <mxGeometry x="1170" y="342" width="60" height="30" as="geometry" />
        </mxCell>
        <mxCell id="rD1GTLntBQ4M41EryCwE-25" value="DealerId" style="text;html=1;align=center;verticalAlign=middle;resizable=0;points=[];autosize=1;strokeColor=none;fillColor=none;" parent="1" vertex="1">
          <mxGeometry x="1350" y="382" width="70" height="30" as="geometry" />
        </mxCell>
        <mxCell id="rD1GTLntBQ4M41EryCwE-26" value="PlayerIds" style="text;html=1;align=center;verticalAlign=middle;resizable=0;points=[];autosize=1;strokeColor=none;fillColor=none;" parent="1" vertex="1">
          <mxGeometry x="1350" y="420" width="70" height="30" as="geometry" />
        </mxCell>
        <mxCell id="rD1GTLntBQ4M41EryCwE-27" value="GameState" style="text;html=1;align=center;verticalAlign=middle;resizable=0;points=[];autosize=1;strokeColor=none;fillColor=none;" parent="1" vertex="1">
          <mxGeometry x="1350" y="462" width="80" height="30" as="geometry" />
        </mxCell>
        <mxCell id="rD1GTLntBQ4M41EryCwE-28" value="NextAction" style="text;html=1;align=center;verticalAlign=middle;resizable=0;points=[];autosize=1;strokeColor=none;fillColor=none;" parent="1" vertex="1">
          <mxGeometry x="1005" y="462" width="80" height="30" as="geometry" />
        </mxCell>
        <mxCell id="rD1GTLntBQ4M41EryCwE-29" value="Hand - List Card" style="text;html=1;align=center;verticalAlign=middle;resizable=0;points=[];autosize=1;strokeColor=none;fillColor=none;" parent="1" vertex="1">
          <mxGeometry x="1160" y="382" width="110" height="30" as="geometry" />
        </mxCell>
        <mxCell id="rD1GTLntBQ4M41EryCwE-30" value="nickname" style="text;html=1;align=center;verticalAlign=middle;resizable=0;points=[];autosize=1;strokeColor=none;fillColor=none;" parent="1" vertex="1">
          <mxGeometry x="1020" y="784" width="70" height="30" as="geometry" />
        </mxCell>
      </root>
    </mxGraphModel>
  </diagram>
</mxfile>
